<?xml version="1.0" standalone="no"?>
<!DOCTYPE svg PUBLIC "-//W3C//DTD SVG 20010904//EN"
 "http://www.w3.org/TR/2001/REC-SVG-20010904/DTD/svg10.dtd">
<svg version="1.0" xmlns="http://www.w3.org/2000/svg"
 width="1018.000000pt" height="1018.000000pt" viewBox="0 0 1018.000000 1018.000000"
 preserveAspectRatio="xMidYMid meet">
<metadata>
Created by potrace 1.14, written by Peter Selinger 2001-2017
</metadata>
<g transform="translate(0.000000,1018.000000) scale(0.100000,-0.100000)"
fill="#000000" stroke="none">
<path d="M5040 10163 c-54 -21 -134 -128 -255 -338 -16 -27 -33 -51 -37 -53
-4 -2 -8 -10 -8 -17 0 -16 -64 -71 -91 -78 -11 -3 -17 -1 -14 3 3 4 -4 6 -15
3 -18 -5 -99 39 -108 58 -2 4 -17 22 -35 40 -18 19 -48 54 -67 79 -60 76 -153
165 -195 185 -49 24 -119 27 -161 8 -44 -22 -75 -78 -148 -275 -36 -97 -75
-192 -85 -210 -43 -72 -121 -83 -198 -29 -24 17 -48 31 -52 31 -5 0 -11 4 -13
8 -1 5 -32 28 -68 53 -36 24 -67 47 -70 50 -8 9 -93 65 -130 86 -23 13 -55 20
-92 20 -52 1 -61 -2 -96 -36 -51 -46 -67 -99 -88 -275 -3 -33 -7 -64 -9 -70
-6 -32 -15 -86 -20 -121 -17 -127 -111 -169 -236 -105 -33 16 -63 29 -67 28
-11 -4 -72 26 -72 34 0 5 -5 8 -11 8 -6 0 -49 18 -95 39 -46 22 -84 38 -84 35
0 -2 -12 2 -27 9 -16 7 -35 13 -43 12 -8 -1 -25 -3 -37 -3 -30 -3 -89 -56
-111 -101 -18 -39 -22 -146 -7 -251 8 -61 11 -232 5 -267 -2 -13 -8 -23 -12
-23 -4 0 -8 -6 -8 -12 0 -20 -61 -54 -100 -56 -35 -3 -59 2 -260 53 -68 18
-140 29 -205 31 -98 4 -101 3 -134 -25 l-34 -29 6 -89 c6 -77 14 -134 31 -208
19 -85 35 -145 39 -152 9 -14 20 -86 19 -122 -1 -40 -48 -104 -81 -109 -11 -2
-21 -7 -21 -11 0 -4 -55 -5 -123 -3 -67 3 -141 6 -164 6 -24 1 -43 4 -43 7 0
8 -93 5 -107 -4 -7 -5 -13 -4 -13 2 0 17 -82 -17 -113 -46 -28 -27 -47 -81
-43 -118 6 -48 19 -95 27 -95 5 0 9 -9 9 -20 0 -11 5 -20 10 -20 6 0 10 -6 10
-14 0 -23 139 -318 153 -324 14 -7 7 -39 -13 -63 -48 -57 -63 -68 -108 -78
-26 -6 -74 -13 -107 -15 -33 -3 -60 -6 -60 -6 0 -3 -73 -19 -115 -26 -71 -11
-86 -14 -117 -23 -18 -5 -33 -8 -33 -5 0 11 -81 -51 -96 -74 -38 -58 -13 -150
67 -253 16 -20 29 -40 29 -43 0 -5 7 -15 52 -68 25 -30 123 -177 123 -186 0
-4 3 -12 7 -17 11 -17 -20 -89 -49 -112 -15 -12 -101 -50 -192 -84 -92 -34
-189 -73 -217 -86 -76 -36 -123 -95 -118 -150 1 -13 2 -31 3 -41 2 -32 31 -63
287 -308 72 -69 95 -103 100 -145 4 -34 -15 -76 -44 -99 -21 -17 -21 -17 -152
-96 -52 -32 -109 -68 -126 -81 -17 -13 -36 -23 -42 -23 -7 0 -12 -4 -12 -10 0
-5 -6 -10 -14 -10 -7 0 -30 -18 -49 -39 -65 -72 -60 -156 15 -229 23 -23 46
-42 50 -42 8 0 36 -18 251 -155 97 -62 120 -89 123 -146 3 -53 -36 -102 -156
-199 -198 -159 -238 -219 -231 -339 2 -44 68 -95 176 -136 358 -135 378 -146
394 -218 10 -40 -3 -68 -80 -174 -24 -33 -51 -71 -59 -83 -8 -12 -20 -28 -26
-34 -5 -6 -19 -26 -29 -43 -11 -18 -23 -33 -27 -33 -4 0 -8 -7 -8 -15 0 -7 -6
-18 -12 -22 -24 -15 -50 -80 -50 -126 -1 -55 30 -109 75 -130 39 -18 129 -45
177 -52 19 -3 49 -8 65 -10 17 -3 46 -7 65 -10 19 -2 49 -6 65 -9 17 -2 50 -7
75 -11 53 -8 94 -30 109 -59 20 -36 16 -109 -7 -152 -16 -29 -40 -87 -44 -104
-2 -8 -6 -17 -9 -20 -4 -3 -32 -65 -64 -138 -61 -144 -66 -180 -32 -239 25
-44 75 -66 145 -65 32 0 142 2 246 4 161 3 195 1 227 -14 40 -18 77 -75 73
-113 -5 -42 -12 -82 -24 -130 -6 -27 -13 -57 -15 -65 -2 -8 -13 -53 -25 -100
-11 -47 -23 -94 -26 -105 -15 -62 -2 -140 28 -175 46 -53 167 -59 326 -16 28
8 52 12 52 9 0 -3 6 -1 13 4 6 6 30 14 52 18 22 5 47 10 55 13 8 2 45 6 82 8
65 3 69 1 102 -29 25 -24 36 -44 41 -78 8 -52 1 -211 -9 -228 -4 -6 -5 -15 -1
-20 3 -5 1 -12 -3 -15 -5 -3 -8 -52 -7 -108 3 -128 19 -165 91 -204 54 -31
207 7 348 86 30 16 62 30 70 30 9 0 16 4 16 8 0 4 26 16 58 27 31 10 62 25 68
32 8 10 18 11 35 4 30 -11 98 -75 101 -93 1 -16 5 -31 8 -38 2 -3 4 -23 6 -45
1 -22 3 -42 5 -45 1 -3 3 -9 4 -15 3 -18 17 -99 22 -125 7 -37 13 -71 17 -105
12 -84 33 -129 77 -163 67 -53 127 -41 261 48 57 38 112 77 124 88 22 21 82
62 144 99 73 43 132 31 175 -37 13 -20 54 -118 90 -216 37 -99 76 -196 88
-216 37 -67 132 -97 198 -63 42 22 61 39 153 134 162 168 221 226 241 237 29
15 88 2 117 -27 29 -27 113 -154 128 -193 12 -32 115 -183 145 -212 73 -72
158 -69 233 7 33 33 142 191 142 205 0 20 139 219 147 210 3 -3 12 2 20 10 14
13 38 13 81 0 10 -3 92 -83 182 -177 91 -94 182 -179 202 -190 66 -34 135 -21
185 33 22 23 87 168 76 168 -3 0 -1 6 4 12 5 7 20 45 33 83 59 182 118 261
189 256 30 -2 86 -25 101 -42 3 -3 34 -25 70 -50 36 -24 67 -46 70 -49 3 -3
21 -17 40 -30 19 -13 37 -27 40 -30 3 -3 14 -10 25 -17 118 -71 159 -83 220
-63 31 10 75 56 82 85 1 5 9 35 18 65 19 67 27 109 40 195 2 17 6 39 8 50 3
11 8 41 11 68 4 26 11 58 16 71 5 13 7 26 4 29 -3 2 12 21 33 42 34 34 41 37
83 33 28 -3 87 -25 158 -61 61 -30 112 -52 112 -49 0 4 4 2 8 -4 7 -10 85 -43
153 -63 40 -13 129 -12 129 1 0 4 3 7 8 6 11 -4 46 24 69 57 16 24 20 42 17
95 -21 415 -16 466 46 508 46 31 110 27 297 -22 375 -97 460 -23 367 319 -9
33 -11 39 -17 55 -4 8 -8 26 -9 40 -2 14 -6 27 -9 30 -23 17 -28 154 -8 195
27 57 72 69 259 68 91 -1 202 -3 246 -5 117 -4 164 24 182 110 13 57 1 107
-53 217 -24 50 -47 102 -50 117 -4 16 -11 28 -16 28 -5 0 -9 6 -9 14 0 7 -14
44 -31 81 -33 73 -34 106 -6 148 26 38 58 52 162 71 50 9 99 18 110 20 11 2
43 7 70 11 28 5 52 9 55 10 3 1 25 5 50 9 128 23 191 80 183 166 -4 55 -6 60
-15 60 -5 0 -6 5 -3 10 3 5 1 10 -4 10 -6 0 -11 4 -11 10 0 9 -74 121 -100
152 -5 7 -33 45 -61 83 -27 39 -55 77 -62 85 -17 22 -43 83 -41 98 1 6 2 20 3
31 2 32 49 71 123 100 40 17 87 35 103 42 17 7 35 13 40 15 15 4 135 50 170
65 17 7 33 12 36 11 4 -1 25 16 47 36 85 79 76 168 -26 263 -227 210 -301 284
-308 308 -10 37 -11 45 -5 56 3 6 6 13 6 17 0 13 58 78 81 90 37 20 163 97
239 147 134 87 168 133 163 216 -4 58 -67 114 -258 230 -217 131 -241 157
-226 240 8 42 15 49 195 204 84 71 151 139 151 150 0 6 4 11 8 11 12 0 41 93
38 121 -2 13 -6 38 -10 54 -8 34 -15 38 -276 141 -91 36 -184 75 -208 86 -73
36 -101 96 -74 161 11 25 49 85 63 97 3 3 20 28 39 55 19 28 37 52 40 55 3 3
22 28 40 55 19 28 40 56 47 63 15 16 47 83 45 95 -1 4 1 7 6 7 9 0 7 58 -3 91
-10 31 -58 74 -98 89 -18 6 -40 16 -49 21 -11 5 -19 5 -23 -2 -5 -7 -11 -6
-21 2 -8 6 -14 9 -14 6 0 -3 -17 -1 -37 4 -21 5 -58 12 -82 14 -24 3 -48 8
-54 12 -6 4 -25 7 -41 9 -65 4 -132 15 -158 27 -14 6 -41 35 -58 64 l-32 52
20 28 c18 26 72 137 72 148 0 3 17 42 39 88 45 96 54 118 56 132 0 6 6 20 13
32 14 25 18 85 8 122 -8 35 -55 80 -94 91 -20 5 -39 7 -43 4 -4 -2 -10 -1 -13
4 -5 9 -47 8 -196 -4 -143 -11 -242 -10 -278 5 -65 27 -88 92 -68 191 12 57
37 164 43 180 3 8 7 20 9 25 22 89 28 120 30 175 3 55 -1 71 -21 102 -14 21
-36 45 -50 54 -28 18 -122 27 -131 12 -3 -4 -9 -6 -14 -3 -5 3 -19 1 -33 -4
-13 -5 -37 -11 -53 -14 -16 -3 -57 -12 -92 -21 -34 -9 -67 -14 -72 -11 -6 3
-10 2 -10 -3 0 -14 -133 -36 -172 -28 -52 10 -95 57 -102 114 -7 51 -2 275 9
387 5 52 3 79 -8 105 -28 63 -75 100 -137 104 -22 2 -128 -34 -155 -53 -5 -4
-27 -13 -49 -20 -21 -7 -54 -24 -73 -37 -20 -13 -44 -24 -53 -24 -10 0 -41
-12 -70 -27 -52 -27 -126 -37 -195 -26 -24 4 -30 10 -31 31 -1 15 -4 41 -8 57
-4 17 -14 68 -22 115 -8 47 -18 99 -21 115 -3 17 -7 41 -9 55 -15 111 -25 154
-43 185 -29 50 -78 77 -136 74 -43 -2 -126 -35 -145 -58 -3 -3 -12 -10 -21
-16 -32 -19 -184 -129 -203 -147 -11 -10 -28 -20 -38 -24 -10 -3 -18 -10 -18
-16 0 -6 -3 -8 -7 -5 -3 4 -12 2 -18 -3 -20 -16 -84 -21 -108 -9 -12 7 -31 22
-41 35 -18 22 -73 139 -81 174 -10 40 -102 270 -118 294 -38 57 -128 72 -206
34 -44 -22 -144 -116 -206 -194 -58 -73 -129 -146 -157 -160 -15 -8 -28 -11
-28 -7 0 4 -5 2 -11 -4 -22 -22 -79 8 -120 62 -22 29 -39 57 -39 63 0 5 -4 12
-8 14 -4 2 -17 19 -28 38 -12 19 -44 72 -73 118 -28 46 -51 86 -51 88 0 14
-70 78 -99 90 -34 14 -84 17 -111 7z m100 -908 c92 -17 181 -101 213 -200 44
-137 -26 -281 -171 -352 -124 -61 -247 -25 -351 102 -32 39 -58 126 -56 179 7
122 123 255 239 273 17 3 32 6 34 8 4 3 47 -1 92 -10z m-677 -584 c26 -12 104
-83 197 -176 220 -222 249 -249 302 -274 l48 -23 -20 -39 c-11 -21 -18 -39
-15 -39 4 0 3 -6 -2 -12 -4 -7 -8 -17 -9 -23 -5 -25 -33 -123 -43 -147 -6 -16
-8 -28 -5 -28 3 0 2 -6 -3 -12 -4 -7 -8 -17 -9 -23 -3 -15 -81 -281 -103 -352
-10 -34 -16 -64 -13 -67 3 -3 1 -6 -5 -6 -6 0 -13 -15 -17 -32 -6 -34 -9 -43
-19 -68 -4 -8 -8 -24 -10 -35 -2 -11 -7 -28 -11 -37 -4 -9 -9 -22 -10 -30 -2
-7 -11 -40 -21 -73 -11 -33 -20 -62 -20 -65 -1 -3 -4 -12 -8 -20 -3 -8 -15
-49 -27 -90 -12 -41 -24 -82 -28 -90 -3 -8 -7 -22 -8 -30 -1 -8 -7 -28 -14
-45 -13 -33 -21 -63 -22 -82 -1 -7 -6 -13 -11 -13 -6 0 -8 -3 -4 -6 3 -3 -1
-23 -8 -45 -8 -21 -12 -39 -8 -39 3 0 1 -6 -5 -12 -8 -10 -34 -92 -34 -105 0
-1 -10 -36 -23 -77 -13 -41 -20 -77 -17 -80 3 -3 -1 -6 -8 -6 -7 0 -10 -3 -7
-7 4 -3 2 -12 -4 -20 -6 -7 -9 -13 -6 -13 3 0 2 -12 -3 -27 -5 -16 -23 -73
-39 -129 l-31 -101 -1089 0 -1088 0 -31 61 c-63 125 -209 433 -226 476 -10 25
-24 57 -32 71 -7 14 -11 29 -9 33 3 3 2 4 -2 1 -6 -5 -31 30 -60 84 -23 41
-19 104 8 142 13 19 30 38 36 42 22 13 95 95 121 134 14 21 28 40 32 43 3 3
38 50 77 105 39 55 102 136 140 180 37 44 82 98 98 120 62 83 258 267 405 380
29 22 66 52 83 68 18 15 37 27 44 27 7 0 13 5 13 10 0 6 6 10 14 10 8 0 17 7
20 16 3 8 10 13 15 10 5 -4 11 -2 13 3 1 5 50 38 108 74 58 37 110 70 115 74
52 40 440 226 563 269 28 10 52 22 52 27 0 4 4 6 9 3 8 -5 48 8 106 34 24 11
114 40 136 45 9 2 45 12 81 23 35 11 80 23 99 26 19 4 52 10 74 14 81 16 135
14 178 -7z m1427 -1 c19 -6 49 -13 65 -16 81 -14 363 -100 384 -118 8 -6 15
-10 15 -8 1 5 32 -7 94 -34 28 -12 52 -21 52 -18 0 3 17 -5 38 -18 20 -12 38
-22 39 -20 5 4 198 -93 201 -100 2 -5 12 -8 23 -8 10 0 19 -4 19 -10 0 -5 4
-10 10 -10 5 0 44 -20 86 -45 41 -25 80 -45 85 -45 5 0 9 -3 9 -8 0 -4 9 -12
20 -17 49 -25 160 -98 160 -106 0 -5 5 -9 10 -9 12 0 109 -69 163 -115 7 -6
21 -17 33 -25 86 -60 291 -251 424 -396 64 -70 129 -150 204 -249 25 -33 49
-64 54 -70 25 -30 112 -166 112 -175 0 -5 3 -10 8 -10 8 0 11 -6 50 -83 27
-53 26 -88 -6 -159 -11 -26 -18 -49 -14 -52 3 -3 0 -6 -6 -6 -7 0 -11 -3 -10
-7 1 -9 -26 -76 -47 -114 -8 -14 -12 -29 -8 -33 3 -3 1 -6 -5 -6 -7 0 -12 -6
-12 -12 0 -7 -11 -35 -24 -63 -24 -50 -30 -63 -101 -225 -20 -47 -40 -92 -45
-100 -4 -9 -11 -30 -14 -47 -14 -64 39 -61 -1129 -60 -741 0 -1060 4 -1066 11
-7 9 -18 42 -26 81 -2 6 -17 57 -35 115 -18 58 -34 112 -35 120 -2 8 -4 16 -5
18 -3 2 -2 2 -14 52 -5 19 -13 46 -19 60 -5 14 -12 34 -14 45 -2 11 -6 27 -10
35 -3 8 -7 17 -8 20 0 3 -4 16 -9 30 -7 24 -55 185 -61 205 -1 6 -3 12 -3 15
-1 3 -11 32 -22 65 -12 33 -24 74 -27 90 -3 17 -8 32 -11 35 -4 3 -8 14 -10
25 -2 11 -11 45 -21 75 -10 30 -28 89 -40 130 -13 41 -24 81 -26 88 -3 7 -4
13 -4 15 0 1 -10 29 -21 62 -12 33 -23 69 -26 80 -2 11 -12 47 -23 80 -11 33
-29 94 -40 135 -47 177 -111 387 -125 411 -15 26 -15 26 47 57 39 20 93 62
147 114 47 46 123 117 170 158 46 41 97 86 111 100 51 48 81 67 129 84 21 7
118 -1 160 -14z m-834 -762 c1 -51 4 -711 4 -1467 1 -1358 2 -1373 21 -1353
10 12 19 23 19 26 0 3 33 50 73 105 39 54 78 107 85 117 95 139 152 221 159
229 4 6 26 37 48 70 70 105 193 272 220 299 23 23 37 27 118 32 145 11 1899 5
1962 -6 15 -2 -22 -16 -200 -76 -88 -30 -167 -57 -175 -60 -8 -3 -17 -6 -20
-6 -3 -1 -41 -14 -85 -30 -44 -16 -84 -31 -90 -32 -48 -12 -101 -32 -107 -41
-4 -5 -8 -7 -8 -2 0 4 -16 1 -35 -7 -19 -8 -35 -12 -35 -9 0 3 -7 0 -15 -7 -8
-7 -15 -9 -15 -5 0 4 -6 3 -13 -3 -7 -6 -24 -13 -39 -16 -14 -2 -37 -10 -50
-17 -12 -7 -25 -12 -28 -12 -3 0 -16 -4 -30 -9 -14 -5 -36 -12 -50 -15 -13 -2
-29 -8 -35 -12 -5 -5 -21 -11 -35 -14 -14 -3 -146 -46 -295 -97 -468 -160
-964 -329 -1138 -386 -92 -31 -165 -60 -162 -65 4 -5 11 -9 17 -9 10 0 216
-71 263 -90 11 -4 63 -22 115 -40 52 -17 104 -35 115 -40 11 -4 56 -20 100
-35 67 -24 191 -70 270 -100 11 -5 22 -9 25 -10 3 -1 18 -7 33 -13 16 -7 32
-12 36 -12 7 0 22 -31 68 -137 7 -18 29 -85 49 -150 19 -65 39 -129 44 -143 9
-27 74 -232 75 -240 2 -12 37 -126 42 -140 3 -8 7 -19 9 -25 1 -5 28 -91 59
-190 31 -99 66 -208 76 -242 10 -35 28 -91 38 -125 30 -96 92 -301 96 -318 2
-8 4 -16 4 -17 1 -2 2 -6 3 -10 1 -5 24 -77 50 -162 56 -185 63 -188 -120 57
-9 12 -22 28 -28 35 -6 7 -17 23 -24 37 -7 13 -17 29 -22 34 -5 6 -72 101
-148 211 -76 110 -142 205 -147 211 -4 5 -12 17 -18 26 -5 8 -28 42 -51 74
-22 33 -56 82 -74 109 -19 28 -38 55 -42 60 -32 40 -118 167 -118 174 0 5 -3
11 -7 13 -5 1 -21 23 -38 48 -16 25 -37 53 -46 63 -9 9 -22 30 -30 45 -8 15
-21 32 -29 39 -8 7 -11 13 -7 13 4 0 3 6 -3 13 -42 50 -60 73 -60 79 0 4 -6
13 -12 20 -23 25 -58 77 -58 87 0 5 -3 11 -8 13 -4 2 -81 109 -172 238 -90
129 -170 241 -177 248 -7 8 -18 23 -25 35 -8 17 -146 214 -164 236 -2 2 -4
-225 -4 -505 0 -280 -3 -531 -6 -559 -7 -53 -4 -49 -129 -164 -22 -20 -56 -48
-75 -61 -19 -13 -46 -35 -60 -47 -14 -13 -28 -23 -31 -23 -3 0 -15 -8 -26 -18
-12 -9 -80 -62 -153 -117 -73 -55 -138 -104 -144 -110 -6 -5 -65 -50 -131
-100 -66 -49 -122 -92 -125 -95 -6 -7 -272 -208 -303 -230 -12 -8 -31 -23 -41
-32 -11 -10 -23 -18 -27 -18 -4 0 -14 -6 -21 -13 -7 -7 -44 -36 -83 -65 -38
-28 -74 -55 -80 -60 -5 -4 -32 -23 -60 -42 -27 -19 -56 -41 -63 -48 -25 -23
-103 -74 -108 -70 -2 3 5 14 16 26 11 12 20 24 20 27 0 7 191 296 207 313 7 7
13 17 13 20 0 4 11 20 25 35 14 15 23 27 20 27 -6 0 8 20 55 77 6 7 15 24 22
38 6 14 15 25 20 25 4 0 8 7 8 15 0 8 4 15 8 15 4 0 16 15 27 33 10 17 23 37
27 42 5 6 49 69 98 140 49 72 96 139 104 150 19 25 201 290 258 373 24 35 51
72 61 83 9 10 17 22 16 25 -1 3 8 17 20 30 12 13 21 26 21 28 0 3 81 121 180
263 99 142 184 265 190 273 5 8 36 52 67 97 148 211 163 235 148 229 -9 -3
-29 -9 -43 -12 -15 -4 -33 -11 -39 -17 -7 -5 -13 -7 -13 -3 0 4 -13 0 -30 -9
-16 -9 -30 -13 -30 -11 0 3 -20 -3 -45 -14 -25 -11 -46 -19 -48 -19 -2 0 -11
-2 -97 -31 -36 -12 -69 -23 -75 -24 -5 -1 -14 -4 -20 -7 -9 -6 -199 -71 -217
-75 -5 -1 -10 -2 -13 -3 -3 0 -7 -1 -10 -1 -3 0 -19 -7 -35 -15 -16 -8 -33
-16 -37 -16 -5 -1 -17 -5 -29 -9 -11 -5 -31 -10 -45 -12 -13 -1 -26 -6 -29 -9
-3 -3 -35 -13 -72 -22 l-66 -17 -66 40 c-36 22 -68 40 -72 40 -3 0 -11 6 -19
13 -20 19 -47 40 -85 67 -19 13 -37 27 -40 30 -3 3 -21 17 -40 30 -19 14 -42
30 -50 37 -17 13 -268 205 -368 280 -88 67 -135 103 -178 138 -20 17 -42 32
-48 34 -6 2 -13 7 -16 10 -3 4 -34 29 -70 56 -68 52 -83 63 -103 80 -7 6 -28
22 -47 35 -19 13 -40 29 -46 35 -7 6 -44 36 -83 66 -39 29 -71 57 -71 61 0 5
-6 8 -12 8 -7 0 -31 16 -53 35 -22 19 -44 38 -50 43 -5 4 -24 18 -41 32 -17
14 -43 33 -58 44 -64 46 -63 45 -38 46 12 0 30 -4 40 -9 9 -5 71 -26 137 -46
66 -20 131 -40 145 -45 45 -15 55 -17 61 -16 3 0 12 -4 20 -10 12 -10 53 -23
76 -25 5 0 14 -5 21 -11 6 -6 12 -7 12 -3 0 4 7 2 15 -5 8 -7 15 -10 15 -7 0
4 20 -2 45 -13 25 -11 46 -19 48 -19 1 0 10 -2 20 -5 19 -7 37 -12 52 -16 6
-2 44 -15 85 -30 41 -15 77 -27 80 -28 3 0 18 -5 33 -11 15 -6 40 -14 55 -17
15 -4 32 -11 38 -15 6 -5 20 -10 32 -12 12 -2 25 -6 28 -10 4 -4 16 -7 26 -7
10 0 26 -4 36 -10 9 -5 46 -19 82 -30 36 -12 72 -24 80 -27 8 -4 17 -7 20 -8
18 -4 209 -68 225 -75 11 -5 130 -45 265 -90 135 -45 254 -85 265 -90 16 -7
117 -41 135 -45 3 -1 12 -4 20 -7 61 -22 232 -81 315 -108 55 -18 108 -37 119
-42 22 -12 19 -6 -29 62 -18 25 -58 83 -90 130 -32 47 -62 87 -67 88 -4 2 -8
10 -8 17 0 8 -6 20 -13 27 -7 7 -44 58 -82 113 -38 55 -72 102 -76 105 -3 3
-8 10 -10 15 -8 20 -103 160 -111 163 -4 2 -8 9 -8 16 0 7 -13 30 -30 52 -16
21 -30 44 -30 51 0 6 -3 13 -7 15 -20 8 -40 64 -32 85 4 13 10 35 13 50 2 16
5 28 6 28 1 0 3 11 6 25 2 14 14 57 26 95 25 82 26 85 31 105 2 8 7 23 11 32
4 9 9 22 10 30 2 7 6 20 9 28 5 13 37 120 43 145 1 6 9 29 17 52 9 22 13 44
10 47 -4 3 -1 6 5 6 6 0 9 6 6 14 -3 8 -1 17 5 21 6 3 11 16 11 29 0 12 3 26
7 30 4 3 8 14 10 24 6 27 27 97 40 132 3 8 7 21 9 27 1 7 12 43 24 80 12 38
24 75 25 83 2 8 4 15 5 15 1 0 3 8 5 17 2 10 10 37 19 60 14 40 87 271 92 293
1 6 19 62 39 125 20 63 45 142 55 175 10 33 30 96 44 140 14 44 26 86 26 94 0
8 3 12 6 8 3 -3 8 -48 10 -99z m-3506 -1383 c19 -4 46 -13 60 -20 32 -16 90
-66 90 -77 0 -4 8 -17 18 -28 35 -41 47 -147 27 -242 -4 -21 -12 -38 -18 -38
-6 0 -8 -3 -4 -6 7 -8 -42 -82 -70 -104 -109 -91 -298 -76 -399 32 -105 110
-104 279 1 396 74 82 170 110 295 87z m7253 -31 c44 -20 107 -75 107 -93 0 -6
4 -11 9 -11 14 0 51 -127 51 -175 0 -67 -34 -148 -80 -189 -22 -20 -37 -36
-33 -36 5 0 -20 -14 -55 -30 -59 -29 -172 -47 -188 -31 -3 3 -9 6 -12 7 -38 3
-142 78 -142 102 0 7 -4 12 -9 12 -5 0 -19 24 -32 53 -27 62 -34 181 -13 222
13 26 14 28 14 44 0 5 20 29 44 53 45 46 98 77 151 88 53 11 145 3 188 -16z
m-838 -551 c3 -10 6 -19 5 -21 -1 -5 85 -92 93 -92 4 0 20 -11 34 -24 15 -14
30 -23 35 -20 4 3 8 1 8 -4 0 -5 18 -15 40 -22 22 -7 40 -17 40 -22 0 -4 9 -8
20 -8 11 0 20 -5 20 -12 0 -6 3 -9 6 -5 6 5 95 -30 209 -83 143 -67 172 -79
212 -90 34 -11 42 -18 48 -44 19 -87 21 -188 15 -603 -3 -174 -7 -231 -25
-373 -9 -66 -44 -234 -67 -320 -11 -41 -21 -79 -22 -85 -1 -5 -20 -64 -41
-130 -22 -66 -38 -123 -37 -127 1 -5 -2 -8 -8 -8 -5 0 -10 -7 -10 -15 0 -14
-5 -26 -49 -126 -11 -26 -23 -59 -27 -73 -3 -14 -10 -26 -15 -26 -5 0 -8 -3
-7 -7 1 -5 -17 -48 -42 -98 -24 -49 -43 -93 -42 -97 1 -5 -2 -8 -6 -8 -5 0
-14 -16 -22 -35 -8 -19 -17 -35 -22 -35 -4 0 -7 -3 -6 -7 4 -14 -158 -284
-174 -291 -5 -2 -8 -10 -8 -18 0 -8 -7 -17 -15 -20 -8 -4 -15 -12 -15 -18 0
-7 -8 -21 -17 -32 -10 -10 -31 -37 -47 -59 -17 -22 -38 -49 -47 -60 -34 -39
-94 -111 -119 -143 -43 -56 -94 -109 -120 -125 -24 -15 -107 -16 -130 -2 -5 3
-31 10 -58 15 -26 4 -59 11 -74 14 -16 3 -38 8 -50 11 -13 2 -70 16 -128 30
-117 30 -164 38 -230 39 -50 0 -150 -23 -150 -36 0 -4 -7 -8 -15 -8 -8 0 -24
-6 -35 -12 -13 -8 -23 -9 -28 -3 -9 10 -41 111 -49 158 -3 15 -10 27 -15 27
-5 0 -7 4 -4 9 3 4 -3 35 -13 67 -19 57 -41 132 -61 204 -5 19 -28 91 -50 160
-22 69 -40 132 -40 141 0 8 -3 19 -7 23 -4 3 -8 12 -9 19 -1 7 -23 80 -49 162
-26 83 -55 177 -65 210 -10 33 -29 96 -43 140 -14 44 -42 134 -62 200 -21 66
-52 167 -70 225 -30 94 -61 209 -71 266 -3 15 16 39 71 92 41 40 78 72 81 72
4 0 30 18 58 40 28 23 80 63 116 90 36 28 70 53 75 58 6 4 31 23 58 41 26 19
47 39 47 44 0 6 3 8 6 4 3 -3 20 7 38 23 17 17 36 30 43 30 7 0 16 6 20 13 4
8 24 24 43 38 19 13 37 26 40 30 3 3 23 18 45 35 48 35 62 46 78 60 7 6 51 40
98 75 47 35 156 118 243 184 86 66 165 125 174 130 9 6 19 13 22 16 5 5 267
203 325 246 37 27 41 27 50 6z m-5755 -1 c0 -4 13 -15 29 -25 15 -9 46 -32 67
-52 21 -19 42 -35 46 -35 7 0 32 -19 62 -45 6 -6 27 -22 46 -35 19 -13 37 -27
40 -30 3 -4 32 -26 65 -51 33 -24 66 -49 75 -56 8 -7 42 -32 75 -57 33 -25 67
-52 76 -61 9 -8 20 -15 26 -15 6 0 13 -7 17 -15 3 -8 12 -15 20 -15 8 0 16 -4
18 -8 3 -7 83 -70 323 -252 33 -25 62 -47 65 -50 3 -3 32 -25 65 -49 33 -25
62 -48 65 -51 3 -3 25 -20 50 -37 25 -17 55 -41 67 -52 12 -12 25 -21 29 -21
3 0 20 -11 38 -26 46 -37 110 -86 142 -109 36 -25 99 -80 142 -123 22 -22 31
-40 28 -55 -18 -91 -39 -183 -47 -205 -6 -15 -12 -34 -14 -42 -2 -8 -17 -55
-33 -105 -17 -49 -35 -106 -40 -125 -11 -39 -49 -160 -177 -575 -47 -154 -89
-289 -91 -300 -7 -28 -10 -37 -18 -60 -18 -47 -42 -125 -51 -165 0 -3 -6 -21
-12 -40 -23 -70 -65 -210 -67 -222 -1 -7 -4 -17 -8 -23 -7 -12 -31 -98 -28
-104 4 -8 -25 -19 -35 -13 -48 31 -154 51 -212 40 -75 -13 -85 -16 -138 -28
-27 -6 -61 -14 -75 -16 -99 -19 -177 -37 -192 -45 -10 -5 -18 -8 -18 -5 0 3
-19 -1 -42 -8 -57 -16 -137 -20 -171 -7 -36 14 -115 88 -169 159 -24 31 -46
59 -50 60 -5 2 -8 10 -8 17 0 7 -3 15 -7 17 -5 1 -28 28 -53 58 -25 30 -48 57
-52 58 -5 2 -8 9 -8 16 0 6 -9 18 -20 26 -11 8 -20 19 -20 25 0 7 -11 22 -25
35 -14 13 -25 29 -25 37 0 7 -3 13 -8 13 -4 0 -36 48 -72 108 -36 59 -69 110
-73 113 -5 3 -9 9 -9 12 0 18 -11 47 -18 47 -8 0 -23 38 -21 53 1 4 -3 7 -7 7
-5 0 -15 18 -22 40 -7 22 -19 45 -27 51 -7 6 -13 17 -13 24 0 10 -24 72 -71
180 -19 45 -102 305 -115 360 -1 6 -11 48 -23 95 -12 47 -24 96 -26 110 -5 23
-7 36 -20 93 -3 12 -7 36 -10 52 -2 17 -7 41 -9 54 -3 12 -8 44 -11 70 -4 25
-8 55 -10 66 -1 11 -6 45 -10 75 -4 30 -9 69 -12 85 -2 17 -6 161 -7 320 -5
432 -13 416 244 520 36 15 85 36 110 48 25 12 47 22 50 22 3 0 15 6 28 13 12
7 22 10 22 7 0 -4 7 1 16 9 8 9 22 16 30 16 27 0 238 113 261 139 12 14 20 27
18 29 -5 5 28 42 37 42 5 0 8 -4 8 -8z m2914 -2217 c20 -8 36 -20 36 -25 0 -6
6 -10 13 -10 6 0 30 -17 52 -38 22 -21 126 -103 230 -182 105 -79 192 -147
195 -150 3 -3 21 -17 40 -30 19 -13 37 -27 40 -30 3 -3 70 -54 150 -114 80
-60 151 -116 158 -124 6 -9 12 -12 12 -6 0 5 6 2 13 -6 7 -9 28 -27 47 -40 19
-13 60 -43 90 -67 67 -53 47 -37 220 -168 80 -60 150 -114 156 -120 6 -5 22
-17 34 -25 12 -8 28 -19 34 -25 6 -5 30 -23 54 -39 44 -30 66 -58 55 -70 -3
-3 -2 -6 4 -6 12 0 10 -30 -12 -125 -8 -38 -17 -79 -20 -90 -2 -11 -7 -31 -10
-45 -4 -14 -11 -45 -15 -70 -5 -25 -11 -58 -14 -75 -4 -16 -9 -46 -12 -65 -3
-19 -9 -37 -13 -40 -3 -3 -7 -21 -9 -40 -2 -33 -6 -47 -33 -119 -6 -18 -25
-35 -50 -47 -21 -11 -39 -23 -39 -27 0 -5 -4 -6 -8 -3 -5 3 -20 -1 -35 -9 -15
-8 -27 -12 -27 -10 0 2 -16 -3 -35 -11 -19 -8 -37 -14 -40 -14 -6 -1 -21 -6
-60 -21 -16 -7 -34 -13 -40 -15 -5 -2 -30 -10 -54 -19 -108 -39 -363 -107
-451 -120 -24 -4 -47 -8 -50 -10 -11 -7 -102 -18 -250 -31 -181 -16 -851 -8
-943 12 -25 5 -108 21 -147 28 -45 8 -391 97 -449 116 -55 18 -176 63 -276
101 -27 11 -58 22 -67 26 -10 3 -18 9 -18 14 0 5 -6 9 -12 9 -7 0 -23 15 -35
33 -27 41 -41 94 -58 227 -1 14 -8 38 -14 53 -6 15 -10 31 -10 35 1 4 0 10 -1
15 -1 4 -3 15 -5 25 -1 9 -4 24 -7 32 -4 8 -14 53 -23 100 -9 47 -19 94 -21
105 -15 55 -13 91 4 118 10 15 65 62 122 104 57 41 108 80 114 85 6 5 38 29
71 54 33 25 67 50 75 57 38 30 214 164 233 177 12 8 36 27 52 42 17 16 36 28
43 28 6 0 12 4 12 9 0 5 15 19 33 30 19 11 45 31 59 43 14 13 38 32 53 43 32
23 94 70 112 85 7 5 17 10 23 10 6 0 8 5 5 10 -3 6 -1 10 5 10 10 0 42 22 105
73 38 31 241 185 260 197 12 8 38 29 57 45 20 17 50 41 68 55 18 14 39 31 46
38 7 6 17 12 23 12 6 0 11 3 11 8 0 12 43 29 76 31 17 0 48 -6 68 -14z m-2205
-1455 c37 -10 132 -72 139 -92 2 -4 10 -15 18 -23 8 -7 22 -33 32 -57 22 -50
23 -168 2 -192 -7 -9 -9 -16 -6 -16 4 0 -2 -13 -14 -30 -12 -16 -18 -30 -14
-30 17 0 -98 -101 -133 -115 -37 -16 -127 -23 -168 -12 -43 11 -105 40 -105
48 0 5 -5 9 -12 9 -20 0 -68 60 -95 119 -54 113 -23 238 80 324 46 38 99 67
147 80 22 6 82 0 129 -13z m4457 -13 c73 -15 146 -65 188 -129 80 -122 35
-313 -91 -397 -52 -35 -182 -59 -218 -42 -5 3 -15 6 -21 7 -32 5 -104 47 -138
80 -16 17 -51 66 -51 73 0 3 -4 11 -8 17 -3 7 -9 29 -13 50 -3 22 -6 41 -7 44
-4 17 15 110 23 115 6 4 8 10 5 15 -6 10 59 98 88 120 59 44 159 64 243 47z"/>
</g>
</svg>
